<svg xmlns="http://www.w3.org/2000/svg" xmlns:xlink="http://www.w3.org/1999/xlink" fill="none" stroke="none" stroke-linecap="square" stroke-miterlimit="10" version="1.1" viewBox="0 0 1430.585 510.759"><clipPath id="p.0"><path d="m0 0l1430.5853 0l0 510.75854l-1430.5853 0l0 -510.75854z" clip-rule="nonzero"/></clipPath><g clip-path="url(#p.0)"><path fill="#000" fill-opacity="0" fill-rule="evenodd" d="m0 0l1430.5853 0l0 510.75854l-1430.5853 0z"/><path fill="#000" fill-rule="evenodd" d="m667.86743 23.341208l0 0c0 -7.0448914 5.4783936 -12.755906 12.236267 -12.755906l0 0c3.2452393 0 6.357544 1.3439226 8.652283 3.7361183c2.2947388 2.3921976 3.5839233 5.636712 3.5839233 9.019788l0 0c0 7.0448914 -5.4783325 12.755907 -12.236206 12.755907l0 0c-6.7578735 0 -12.236267 -5.7110157 -12.236267 -12.755907z"/><path fill-rule="evenodd" stroke="#000" stroke-linecap="butt" stroke-linejoin="round" stroke-width="1" d="m667.86743 23.341208l0 0c0 -7.0448914 5.4783936 -12.755906 12.236267 -12.755906l0 0c3.2452393 0 6.357544 1.3439226 8.652283 3.7361183c2.2947388 2.3921976 3.5839233 5.636712 3.5839233 9.019788l0 0c0 7.0448914 -5.4783325 12.755907 -12.236206 12.755907l0 0c-6.7578735 0 -12.236267 -5.7110157 -12.236267 -12.755907z"/><path fill="#000" fill-rule="evenodd" d="m507.70996 63.627296l344.7874 0l0 12.251968l-344.7874 0z"/><path fill-rule="evenodd" stroke="#000" stroke-linecap="butt" stroke-linejoin="round" stroke-width="1" d="m507.70996 63.627296l344.7874 0l0 12.251968l-344.7874 0z"/><path fill="#000" fill-opacity="0" fill-rule="evenodd" d="m680.1037 36.097115l0 27.527557"/><path fill-rule="evenodd" stroke="#000" stroke-linecap="butt" stroke-linejoin="round" stroke-width="1" d="m680.1037 36.097115l0 21.527557"/><path fill="#000" fill-rule="evenodd" stroke="#000" stroke-linecap="butt" stroke-width="1" d="m678.45197 57.624672l1.6517334 4.5380974l1.6517334 -4.5380974z"/><path fill="#fff" fill-rule="evenodd" d="m534.2349 155.69571l0 0c0 -4.601013 3.7298584 -8.330887 8.330872 -8.330887l81.25952 0c2.2094727 0 4.32843 0.87771606 5.890808 2.4400635c1.5623169 1.5623474 2.4400635 3.6813354 2.4400635 5.8908234l0 33.322495c0 4.601013 -3.7298584 8.330872 -8.330872 8.330872l-81.25952 0c-4.601013 0 -8.330872 -3.7298584 -8.330872 -8.330872z"/><path fill-rule="evenodd" stroke="#000" stroke-linecap="butt" stroke-linejoin="round" stroke-width="1" d="m534.2349 155.69571l0 0c0 -4.601013 3.7298584 -8.330887 8.330872 -8.330887l81.25952 0c2.2094727 0 4.32843 0.87771606 5.890808 2.4400635c1.5623169 1.5623474 2.4400635 3.6813354 2.4400635 5.8908234l0 33.322495c0 4.601013 -3.7298584 8.330872 -8.330872 8.330872l-81.25952 0c-4.601013 0 -8.330872 -3.7298584 -8.330872 -8.330872z"/><path fill="#000" fill-rule="evenodd" d="m659.3793 166.23097l263.49603 0l0 12.251968l-263.49603 0z"/><path fill-rule="evenodd" stroke="#000" stroke-linecap="butt" stroke-linejoin="round" stroke-width="1" d="m659.3793 166.23097l263.49603 0l0 12.251968l-263.49603 0z"/><path fill="#000" fill-rule="evenodd" d="m527.6391 295.44882l263.4961 0l0 12.251953l-263.4961 0z"/><path fill-rule="evenodd" stroke="#000" stroke-linecap="butt" stroke-linejoin="round" stroke-width="1" d="m527.6391 295.44882l263.4961 0l0 12.251953l-263.4961 0z"/><path fill="#fff" fill-rule="evenodd" d="m687.59186 220.30463l0 0c0 -4.601013 3.7298584 -8.330872 8.330872 -8.330872l81.25952 0c2.2094727 0 4.328491 0.87771606 5.890808 2.4400482c1.5623779 1.5623474 2.4400635 3.6813354 2.4400635 5.8908234l0 33.32251c0 4.601013 -3.7298584 8.330872 -8.330872 8.330872l-81.25952 0c-4.601013 0 -8.330872 -3.7298584 -8.330872 -8.330872z"/><path fill-rule="evenodd" stroke="#000" stroke-linecap="butt" stroke-linejoin="round" stroke-width="1" d="m687.59186 220.30463l0 0c0 -4.601013 3.7298584 -8.330872 8.330872 -8.330872l81.25952 0c2.2094727 0 4.328491 0.87771606 5.890808 2.4400482c1.5623779 1.5623474 2.4400635 3.6813354 2.4400635 5.8908234l0 33.32251c0 4.601013 -3.7298584 8.330872 -8.330872 8.330872l-81.25952 0c-4.601013 0 -8.330872 -3.7298584 -8.330872 -8.330872z"/><path fill="#fff" fill-rule="evenodd" d="m812.73883 284.30463l0 0c0 -4.601013 3.7298584 -8.330872 8.330872 -8.330872l81.25952 0c2.2094727 0 4.328491 0.87771606 5.890808 2.4400635c1.5623779 1.5623474 2.4400635 3.6813354 2.4400635 5.890808l0 33.32251c0 4.601013 -3.7298584 8.330872 -8.330872 8.330872l-81.25952 0c-4.601013 0 -8.330872 -3.7298584 -8.330872 -8.330872z"/><path fill-rule="evenodd" stroke="#000" stroke-linecap="butt" stroke-linejoin="round" stroke-width="1" d="m812.73883 284.30463l0 0c0 -4.601013 3.7298584 -8.330872 8.330872 -8.330872l81.25952 0c2.2094727 0 4.328491 0.87771606 5.890808 2.4400635c1.5623779 1.5623474 2.4400635 3.6813354 2.4400635 5.890808l0 33.32251c0 4.601013 -3.7298584 8.330872 -8.330872 8.330872l-81.25952 0c-4.601013 0 -8.330872 -3.7298584 -8.330872 -8.330872z"/><path fill="#000" fill-opacity="0" fill-rule="evenodd" d="m680.1037 75.879265l-96.91339 71.49607"/><path fill-rule="evenodd" stroke="#000" stroke-linecap="butt" stroke-linejoin="round" stroke-width="1" d="m680.1037 75.879265l-92.085144 67.93409"/><path fill="#000" fill-rule="evenodd" stroke="#000" stroke-linecap="butt" stroke-width="1" d="m587.038 142.48418l-2.6713257 4.0232697l4.6324463 -1.3649292z"/><path fill="#000" fill-opacity="0" fill-rule="evenodd" d="m583.19556 197.34908l76.188965 98.110245"/><path fill-rule="evenodd" stroke="#000" stroke-linecap="butt" stroke-linejoin="round" stroke-width="1" d="m583.19556 197.34908l72.50891 93.37132"/><path fill="#000" fill-rule="evenodd" stroke="#000" stroke-linecap="butt" stroke-width="1" d="m654.3999 291.7335l4.0879517 2.5711975l-1.4788208 -4.597351z"/><path fill="#000" fill-opacity="0" fill-rule="evenodd" d="m736.5525 261.958l-77.165344 33.480316"/><path fill-rule="evenodd" stroke="#000" stroke-linecap="butt" stroke-linejoin="round" stroke-width="1" d="m736.5525 261.958l-71.66113 31.092163"/><path fill="#000" fill-rule="evenodd" stroke="#000" stroke-linecap="butt" stroke-width="1" d="m664.23395 291.5349l-3.5056763 3.3215332l4.8205566 -0.29104614z"/><path fill="#000" fill-opacity="0" fill-rule="evenodd" d="m861.69946 325.958l-106.74017 98.70865"/><path fill-rule="evenodd" stroke="#000" stroke-linecap="butt" stroke-linejoin="round" stroke-width="1" d="m861.69946 325.958l-102.33502 94.63501"/><path fill="#000" fill-rule="evenodd" stroke="#000" stroke-linecap="butt" stroke-width="1" d="m758.24304 419.3803l-2.2103882 4.2937927l4.453247 -1.8684387z"/><path fill="#000" fill-opacity="0" fill-rule="evenodd" d="m791.1273 178.48294l70.58264 97.480316"/><path fill-rule="evenodd" stroke="#000" stroke-linecap="butt" stroke-linejoin="round" stroke-width="1" d="m791.1273 178.48294l67.06378 92.620514"/><path fill="#000" fill-rule="evenodd" stroke="#000" stroke-linecap="butt" stroke-width="1" d="m856.8533 272.07214l3.9993286 2.7070312l-1.3236084 -4.6444397z"/><path fill="#000" fill-opacity="0" fill-rule="evenodd" d="m791.1273 178.48294l-54.582703 33.480316"/><path fill-rule="evenodd" stroke="#000" stroke-linecap="butt" stroke-linejoin="round" stroke-width="1" d="m791.1273 178.48294l-49.4682 30.34314"/><path fill="#000" fill-rule="evenodd" stroke="#000" stroke-linecap="butt" stroke-width="1" d="m740.7955 207.41812l-3.0046997 3.7807617l4.7319946 -0.9648285z"/><path fill="#000" fill-opacity="0" fill-rule="evenodd" d="m680.1037 75.879265l111.02362 20.18898"/><path fill-rule="evenodd" stroke="#000" stroke-linecap="butt" stroke-linejoin="round" stroke-width="1" d="m680.1037 75.879265l105.12036 19.115517"/><path fill="#000" fill-rule="evenodd" stroke="#000" stroke-linecap="butt" stroke-width="1" d="m784.9286 96.619865l4.760376 -0.8131714l-4.1693726 -2.4369965z"/><path fill="#fff" fill-rule="evenodd" d="m742.7152 487.41733l0 0c0 -7.0448914 5.4783325 -12.75592 12.236206 -12.75592l0 0c3.2453003 0 6.357605 1.3439331 8.652344 3.7361145c2.2947388 2.392212 3.5839233 5.6367188 3.5839233 9.019806l0 0c0 7.0448914 -5.4783325 12.75589 -12.236267 12.75589l0 0c-6.7578735 0 -12.236206 -5.7109985 -12.236206 -12.75589z"/><path fill-rule="evenodd" stroke="#000" stroke-linecap="butt" stroke-linejoin="round" stroke-width="1" d="m742.7152 487.41733l0 0c0 -7.0448914 5.4783325 -12.75592 12.236206 -12.75592l0 0c3.2453003 0 6.357605 1.3439331 8.652344 3.7361145c2.2947388 2.392212 3.5839233 5.6367188 3.5839233 9.019806l0 0c0 7.0448914 -5.4783325 12.75589 -12.236267 12.75589l0 0c-6.7578735 0 -12.236206 -5.7109985 -12.236206 -12.75589z"/><path fill="#000" fill-rule="evenodd" d="m745.10895 487.41733l0 0c0 -5.8272705 4.406616 -10.551178 9.842468 -10.551178l0 0c2.6104126 0 5.1138916 1.1116333 6.959717 3.0903625c1.8458252 1.9787292 2.8828125 4.6624756 2.8828125 7.4608154l0 0c0 5.82724 -4.406616 10.551178 -9.842529 10.551178l0 0c-5.435852 0 -9.842468 -4.723938 -9.842468 -10.551178z"/><path fill-rule="evenodd" stroke="#000" stroke-linecap="butt" stroke-linejoin="round" stroke-width="1" d="m745.10895 487.41733l0 0c0 -5.8272705 4.406616 -10.551178 9.842468 -10.551178l0 0c2.6104126 0 5.1138916 1.1116333 6.959717 3.0903625c1.8458252 1.9787292 2.8828125 4.6624756 2.8828125 7.4608154l0 0c0 5.82724 -4.406616 10.551178 -9.842529 10.551178l0 0c-5.435852 0 -9.842468 -4.723938 -9.842468 -10.551178z"/><path fill="#000" fill-opacity="0" fill-rule="evenodd" d="m754.9514 436.92126l0 39.93701"/><path fill-rule="evenodd" stroke="#000" stroke-linecap="butt" stroke-linejoin="round" stroke-width="1" d="m754.9514 436.92126l0 33.93701"/><path fill="#000" fill-rule="evenodd" stroke="#000" stroke-linecap="butt" stroke-width="1" d="m753.2997 470.85828l1.6517334 4.538086l1.6517334 -4.538086z"/><path fill="#fff" fill-rule="evenodd" d="m742.1667 104.39387l0 0c0 -4.601013 3.7298584 -8.330872 8.330872 -8.330872l81.25952 0c2.2094727 0 4.32843 0.87770844 5.890808 2.4400558c1.5623169 1.5623398 2.4400635 3.6813278 2.4400635 5.8908157l0 33.322502c0 4.601013 -3.7298584 8.330872 -8.330872 8.330872l-81.25952 0c-4.601013 0 -8.330872 -3.7298584 -8.330872 -8.330872z"/><path fill-rule="evenodd" stroke="#000" stroke-linecap="butt" stroke-linejoin="round" stroke-width="1" d="m742.1667 104.39387l0 0c0 -4.601013 3.7298584 -8.330872 8.330872 -8.330872l81.25952 0c2.2094727 0 4.32843 0.87770844 5.890808 2.4400558c1.5623169 1.5623398 2.4400635 3.6813278 2.4400635 5.8908157l0 33.322502c0 4.601013 -3.7298584 8.330872 -8.330872 8.330872l-81.25952 0c-4.601013 0 -8.330872 -3.7298584 -8.330872 -8.330872z"/><path fill="#000" fill-opacity="0" fill-rule="evenodd" d="m791.1273 146.04724l0 20.18898"/><path fill-rule="evenodd" stroke="#000" stroke-linecap="butt" stroke-linejoin="round" stroke-width="1" d="m791.1273 146.04724l0 14.18898"/><path fill="#000" fill-rule="evenodd" stroke="#000" stroke-linecap="butt" stroke-width="1" d="m789.4756 160.23622l1.6517334 4.538101l1.6517334 -4.538101z"/><path fill="#000" fill-rule="evenodd" d="m623.2034 424.66928l263.49603 0l0 12.251984l-263.49603 0z"/><path fill-rule="evenodd" stroke="#000" stroke-linecap="butt" stroke-linejoin="round" stroke-width="1" d="m623.2034 424.66928l263.49603 0l0 12.251984l-263.49603 0z"/><path fill="#fff" fill-rule="evenodd" d="m610.4265 343.39255l0 0c0 -4.601013 3.7298584 -8.330872 8.330872 -8.330872l81.25952 0c2.2094727 0 4.328491 0.87771606 5.890808 2.4400635c1.5623169 1.5623474 2.4400635 3.6813354 2.4400635 5.890808l0 33.32251c0 4.601013 -3.7298584 8.330872 -8.330872 8.330872l-81.25952 0c-4.601013 0 -8.330872 -3.7298584 -8.330872 -8.330872z"/><path fill-rule="evenodd" stroke="#000" stroke-linecap="butt" stroke-linejoin="round" stroke-width="1" d="m610.4265 343.39255l0 0c0 -4.601013 3.7298584 -8.330872 8.330872 -8.330872l81.25952 0c2.2094727 0 4.328491 0.87771606 5.890808 2.4400635c1.5623169 1.5623474 2.4400635 3.6813354 2.4400635 5.890808l0 33.32251c0 4.601013 -3.7298584 8.330872 -8.330872 8.330872l-81.25952 0c-4.601013 0 -8.330872 -3.7298584 -8.330872 -8.330872z"/><path fill="#000" fill-opacity="0" fill-rule="evenodd" d="m659.38715 307.70078l0 27.370087"/><path fill-rule="evenodd" stroke="#000" stroke-linecap="butt" stroke-linejoin="round" stroke-width="1" d="m659.38715 307.70078l0 21.370087"/><path fill="#000" fill-rule="evenodd" stroke="#000" stroke-linecap="butt" stroke-width="1" d="m657.7354 329.07086l1.6517334 4.5381165l1.6517334 -4.5381165z"/><path fill="#000" fill-opacity="0" fill-rule="evenodd" d="m659.38715 385.04593l95.55902 39.62204"/><path fill-rule="evenodd" stroke="#000" stroke-linecap="butt" stroke-linejoin="round" stroke-width="1" d="m659.38715 385.04593l90.01654 37.323944"/><path fill="#000" fill-rule="evenodd" stroke="#000" stroke-linecap="butt" stroke-width="1" d="m748.7711 423.89566l4.824646 0.21240234l-3.5593872 -3.2639465z"/></g></svg>